<svg width="230" height="54" viewBox="0 0 230 54" fill="none" xmlns="http://www.w3.org/2000/svg">
<g filter="url(#filter0_d_21_647)">
<g clip-path="url(#clip0_21_647)">
<path d="M28.551 5.36377C25.8036 5.36377 23.5754 7.59143 23.5754 10.3394C23.5754 13.0873 25.8036 15.3149 28.551 15.3149C30.5654 15.3149 32.4604 12.3942 36.0144 12.3942C39.213 12.3942 41.4634 15.3149 43.4778 15.3149C46.2252 15.3149 48.4534 13.0873 48.4534 10.3394C48.4534 7.59144 46.2252 5.36377 43.4778 5.36377C41.4634 5.36377 39.213 8.28453 36.0144 8.28453C32.8158 8.28453 30.5654 5.36377 28.551 5.36377Z" fill="#1282A2"/>
<path d="M59.1174 29.5303C61.8648 29.5303 64.093 31.7579 64.093 34.5059C64.093 37.2538 61.8648 39.4814 59.1174 39.4814C58.2522 39.4814 57.4091 38.9426 56.447 38.3279C55.1692 37.5113 53.6816 36.5607 51.654 36.5607C49.8707 36.5607 48.3821 37.4686 47.0648 38.272C46.0194 38.9096 45.0819 39.4814 44.1907 39.4814C44.0712 39.4814 43.9527 39.4772 43.8353 39.4689C43.718 39.4772 43.5995 39.4814 43.48 39.4814C42.6148 39.4814 41.7716 38.9426 40.8096 38.3279C39.5317 37.5113 38.0441 36.5607 36.0166 36.5607C34.2333 36.5607 32.7446 37.4686 31.4274 38.272C30.382 38.9096 29.4445 39.4814 28.5532 39.4814C28.4337 39.4814 28.3152 39.4772 28.1979 39.4689C28.0805 39.4772 27.9619 39.4814 27.8424 39.4814C26.9511 39.4814 26.0137 38.9097 24.9683 38.2721C23.651 37.4686 22.1624 36.5607 20.379 36.5607C18.3515 36.5607 16.8639 37.5113 15.5861 38.3279C14.624 38.9426 13.7808 39.4814 12.9157 39.4814C10.1683 39.4814 7.94007 37.2538 7.94007 34.5059C7.94007 31.7579 10.1683 29.5303 12.9157 29.5303C13.8069 29.5303 14.7444 30.1021 15.7898 30.7397C17.1071 31.5431 18.5957 32.451 20.379 32.451C22.1624 32.451 23.651 31.5431 24.9683 30.7397C26.0137 30.1021 26.9511 29.5303 27.8424 29.5303C27.9619 29.5303 28.0804 29.5345 28.1978 29.5428C28.3152 29.5345 28.4337 29.5303 28.5532 29.5303C29.4445 29.5303 30.382 30.1021 31.4274 30.7396C32.7446 31.5431 34.2333 32.451 36.0166 32.451C37.8 32.451 39.2886 31.5431 40.6059 30.7396C41.6512 30.1021 42.5887 29.5303 43.48 29.5303C43.5995 29.5303 43.7179 29.5345 43.8353 29.5428C43.9527 29.5345 44.0712 29.5303 44.1907 29.5303C45.0819 29.5303 46.0194 30.1021 47.0648 30.7396C48.3821 31.5431 49.8707 32.451 51.654 32.451C53.4374 32.451 54.926 31.5431 56.2433 30.7397C57.2887 30.1021 58.2262 29.5303 59.1174 29.5303Z" fill="#1282A2"/>
<path d="M15.7577 22.4222C15.7577 19.6742 17.9859 17.4466 20.7333 17.4466C21.6245 17.4466 22.562 18.0184 23.6074 18.656C24.9247 19.4594 26.4133 20.3673 28.1966 20.3673C29.98 20.3673 31.4686 19.4594 32.7859 18.656C33.8313 18.0184 34.7687 17.4466 35.66 17.4466C35.7795 17.4466 35.898 17.4508 36.0154 17.4591C36.1328 17.4508 36.2513 17.4466 36.3708 17.4466C37.2621 17.4466 38.1996 18.0184 39.245 18.656C40.5623 19.4594 42.0509 20.3673 43.8342 20.3673C45.6176 20.3673 47.1062 19.4594 48.4235 18.656C49.4688 18.0184 50.4063 17.4466 51.2976 17.4466C54.045 17.4466 56.2732 19.6742 56.2732 22.4222C56.2732 25.1701 54.045 27.3977 51.2976 27.3977C50.4324 27.3977 49.5892 26.8589 48.6272 26.2442C47.3493 25.4276 45.8618 24.477 43.8342 24.477C42.0509 24.477 40.5623 25.3849 39.245 26.1884C38.1996 26.8259 37.2621 27.3977 36.3708 27.3977C36.2514 27.3977 36.1329 27.3935 36.0155 27.3852C35.8981 27.3935 35.7795 27.3977 35.66 27.3977C34.7687 27.3977 33.8313 26.826 32.7859 26.1884C31.4686 25.3849 29.98 24.477 28.1966 24.477C26.1691 24.477 24.6815 25.4276 23.4037 26.2442C22.4416 26.8589 21.5984 27.3977 20.7333 27.3977C17.9859 27.3977 15.7577 25.1701 15.7577 22.4222Z" fill="#1282A2"/>
</g>
<path d="M104.132 32.647H86.4524V23.7091H102.413V18.3561H86.4524V9.41814H103.641V4.11429H79.6752V38H104.132V32.647ZM129.728 19.7312C133.117 18.5525 134.983 16.2444 134.983 12.7576C134.983 8.1904 131.938 4.99826 126.438 4.31073C124.768 4.11429 123.786 4.11429 122.067 4.11429H109.937V38H122.264C124.179 38 125.259 38 126.978 37.8036C131.496 37.1651 136.26 34.1694 136.26 27.8834C136.26 23.5126 134.099 20.8607 129.728 19.7312ZM116.714 9.41814H121.625C122.411 9.41814 123.295 9.46725 124.081 9.56547C126.34 9.86013 127.911 11.0879 127.911 13.6416C127.911 16.0971 126.684 17.4721 124.228 17.865C123.442 17.9632 122.657 18.0123 121.822 18.0123H116.714V9.41814ZM124.867 32.5979C124.228 32.647 123.393 32.647 122.607 32.647H116.714V23.0706H122.362C123.148 23.0706 123.933 23.1198 124.768 23.218C127.224 23.4635 129.139 24.7895 129.139 27.9325C129.139 30.7809 127.224 32.4015 124.867 32.5979ZM171.974 38L171.925 4.11429H165.197V19.6821C165.197 22.5795 165.246 26.7048 165.442 30.3389L151.2 4.11429H142.213V38H148.991V22.6778C148.991 19.8294 148.941 15.9497 148.745 12.2665L162.692 38H171.974ZM194.013 20.3205L208.991 4.11429H200.937L186.302 20.4678V4.11429H179.525V38H186.302V27.3432L189.102 24.2984L199.562 38H208.304L194.013 20.3205Z" fill="#FEFCFB"/>
</g>
<defs>
<filter id="filter0_d_21_647" x="0.483819" y="0.323242" width="213.023" height="53.2311" filterUnits="userSpaceOnUse" color-interpolation-filters="sRGB">
<feFlood flood-opacity="0" result="BackgroundImageFix"/>
<feColorMatrix in="SourceAlpha" type="matrix" values="0 0 0 0 0 0 0 0 0 0 0 0 0 0 0 0 0 0 127 0" result="hardAlpha"/>
<feOffset dy="4.51618"/>
<feGaussianBlur stdDeviation="2.25809"/>
<feComposite in2="hardAlpha" operator="out"/>
<feColorMatrix type="matrix" values="0 0 0 0 0 0 0 0 0 0 0 0 0 0 0 0 0 0 0.25 0"/>
<feBlend mode="normal" in2="BackgroundImageFix" result="effect1_dropShadow_21_647"/>
<feBlend mode="normal" in="SourceGraphic" in2="effect1_dropShadow_21_647" result="shape"/>
</filter>
<clipPath id="clip0_21_647">
<rect width="44.1987" height="62.0333" fill="white" transform="matrix(0 1 -1 0 67.0332 0.323242)"/>
</clipPath>
</defs>
</svg>
